<svg xmlns="http://www.w3.org/2000/svg" viewBox="0 0 155 50">
  <!-- Pill Icon -->
  <path d="M25 5 A 12 12 0 0 1 37 17 V 33 A 12 12 0 0 1 13 33 V 17 A 12 12 0 0 1 25 5 Z" fill="#1a73e8" />
  <path d="M22 12 A 5 5 0 0 1 28 12" stroke="white" stroke-width="2" fill="none" stroke-linecap="round" />
  
  <!-- Heart Icon -->
  <path d="M10 30 C 7 27, 2 30, 2 35 C 2 40, 10 45, 12 47 C 14 45, 22 40, 22 35 C 22 30, 17 27, 14 30 L 12 32 L 10 30 Z" fill="none" stroke="#0f9d58" stroke-width="2.5" />

  <!-- Text -->
  <text x="45" y="35" font-family="Arial, sans-serif" font-weight="bold" font-size="24" fill="#1a73e8">true</text>
  <text x="92" y="35" font-family="Arial, sans-serif" font-weight="bold" font-size="24" fill="#0f9d58">meds</text>
</svg>
